HIERARCHY
ROOT Hips
{
 OFFSET 0.000000 0.000000 0.000000
 CHANNELS 6 Xposition Yposition Zposition Yrotation Xrotation Zrotation
 JOINT Chest
 {
  OFFSET 0.000000 9.585900 0.002600
  CHANNELS 3 Yrotation Xrotation Zrotation
  JOINT Chest2
  {
   OFFSET 0.000000 9.601200 -0.005300
   CHANNELS 3 Yrotation Xrotation Zrotation
   JOINT Chest3
   {
    OFFSET 0.000000 9.561800 0.000000
    CHANNELS 3 Yrotation Xrotation Zrotation
    JOINT Chest4
    {
     OFFSET 0.000000 9.552100 0.000000
     CHANNELS 3 Yrotation Xrotation Zrotation
     JOINT Neck
     {
      OFFSET 0.000000 14.453000 0.000000
      CHANNELS 3 Yrotation Xrotation Zrotation
      JOINT Head
      {
       OFFSET 0.000000 8.936500 -0.011300
       CHANNELS 3 Yrotation Xrotation Zrotation
       End Site
       {
        OFFSET 0.000000 17.073600 -0.006000
       }
      }
     }
     JOINT RightCollar
     {
      OFFSET -2.921100 9.558500 0.000000
      CHANNELS 3 Yrotation Xrotation Zrotation
      JOINT RightShoulder
      {
       OFFSET -13.519700 0.000000 0.000000
       CHANNELS 3 Yrotation Xrotation Zrotation
       JOINT RightElbow
       {
        OFFSET 0.000000 -29.696600 0.000000
        CHANNELS 3 Yrotation Xrotation Zrotation
        JOINT RightWrist
        {
         OFFSET 0.000000 -24.004700 0.000000
         CHANNELS 3 Yrotation Xrotation Zrotation
         End Site
         {
          OFFSET 0.000000 -17.728500 0.000000
         }
        }
       }
      }
     }
     JOINT LeftCollar
     {
      OFFSET 2.921100 9.558500 0.000000
      CHANNELS 3 Yrotation Xrotation Zrotation
      JOINT LeftShoulder
      {
       OFFSET 13.519700 0.000000 0.000000
       CHANNELS 3 Yrotation Xrotation Zrotation
       JOINT LeftElbow
       {
        OFFSET 0.000000 -29.696600 0.000000
        CHANNELS 3 Yrotation Xrotation Zrotation
        JOINT LeftWrist
        {
         OFFSET 0.000000 -24.004700 0.000000
         CHANNELS 3 Yrotation Xrotation Zrotation
         End Site
         {
          OFFSET 0.000000 -17.728500 0.000000
         }
        }
       }
      }
     }
    }
   }
  }
 }
 JOINT RightHip
 {
  OFFSET -7.771700 -0.012900 -0.001300
  CHANNELS 3 Yrotation Xrotation Zrotation
  JOINT RightKnee
  {
   OFFSET 0.000000 -40.869800 0.001200
   CHANNELS 3 Yrotation Xrotation Zrotation
   JOINT RightAnkle
   {
    OFFSET 0.000000 -39.717900 0.002100
    CHANNELS 3 Yrotation Xrotation Zrotation
    JOINT RightToe
    {
     OFFSET 0.000000 -4.965400 11.033500
     CHANNELS 3 Yrotation Xrotation Zrotation
     End Site
     {
      OFFSET 0.000000 -1.423100 5.872300
     }
    }
   }
  }
 }
 JOINT LeftHip
 {
  OFFSET 7.771700 -0.012900 -0.001300
  CHANNELS 3 Yrotation Xrotation Zrotation
  JOINT LeftKnee
  {
   OFFSET 0.000000 -40.869800 0.001200
   CHANNELS 3 Yrotation Xrotation Zrotation
   JOINT LeftAnkle
   {
    OFFSET 0.000000 -39.717900 0.002100
    CHANNELS 3 Yrotation Xrotation Zrotation
    JOINT LeftToe
    {
     OFFSET 0.000000 -4.965400 11.033500
     CHANNELS 3 Yrotation Xrotation Zrotation
     End Site
     {
      OFFSET 0.000000 -1.423100 5.872300
     }
    }
   }
  }
 }
}
MOTION
Frames: 11
Frame Time: 0.008333
-117.211115 48.891572 19.579994 175.779356 -31.663595 -3.221092 0.542203 18.534482 2.176878 0.017281 2.163607 0.233487 0.078207 3.529869 0.343478 0.470265 16.183802 1.695249 4.834646 16.645814 -3.081092 10.014277 -4.451142 -7.368803 -1.386982 -1.955573 -3.378753 6.877093 -11.107768 -13.329954 -38.646504 -44.344933 90.418025 2.004732 1.500851 -12.197501 -0.686756 -0.685873 2.758870 -8.797098 -7.349383 14.328041 63.697033 -58.412556 -103.402801 7.684191 5.952012 11.023602 -4.164971 -53.353875 -7.919210 -162.575011 83.350609 -150.465668 -29.737498 -3.460835 -3.512941 -0.098529 -11.346048 -0.091816 -14.378231 -54.732834 19.178050 -75.975218 66.445576 -80.762593 30.471333 5.754144 14.575710 0.089882 -0.326141 0.025341
-117.212027 48.899610 19.577068 175.808423 -31.657915 -3.209990 0.488535 18.551437 2.163424 0.013722 2.166798 0.231770 0.084693 3.519166 0.334015 0.426674 16.203695 1.701025 4.864955 16.653709 -3.094278 10.029464 -4.350238 -7.308057 -1.325442 -1.970376 -3.408364 7.097096 -11.082470 -13.386161 -38.805281 -44.381696 90.575316 1.865380 1.188330 -13.018337 -0.698053 -0.672415 2.752418 -8.873304 -7.322782 14.276647 64.019964 -58.686683 -103.564228 7.724371 5.900473 11.413464 -4.096783 -53.372491 -7.985937 -162.369101 83.316874 -150.282427 -29.701166 -3.371682 -3.563619 -0.152894 -11.409000 0.010982 -14.360592 -54.734188 19.149802 -75.916327 66.442045 -80.719947 30.464005 5.764731 14.600354 0.098672 -0.329789 0.024141
-117.215040 48.906252 19.577966 175.833845 -31.632814 -3.197695 0.437826 18.549391 2.148787 0.020988 2.158082 0.222331 0.066197 3.532856 0.343527 0.402628 16.211294 1.698063 4.887767 16.659098 -3.104890 10.041884 -4.269940 -7.233462 -1.264742 -1.967827 -3.430721 7.270885 -11.060807 -13.433123 -38.964946 -44.380592 90.706041 1.739691 0.905846 -13.721994 -0.674604 -0.686020 2.733412 -8.939812 -7.291315 14.246498 64.235373 -58.883617 -103.680224 7.793744 5.881509 11.704187 -4.040308 -53.408219 -8.047341 -162.304656 83.294200 -150.228236 -29.694092 -3.325379 -3.599994 -0.096980 -11.439755 0.067208 -14.348964 -54.753771 19.129835 -75.852758 66.441428 -80.675087 30.461092 5.765728 14.622138 0.099141 -0.325333 0.027380
-117.218877 48.913516 19.579390 175.848948 -31.613200 -3.188594 0.393027 18.573943 2.152360 0.034798 2.128592 0.201865 0.050184 3.547776 0.353796 0.385715 16.217631 1.693448 4.895724 16.688367 -3.077258 10.059244 -4.228539 -7.188133 -1.217182 -1.916946 -3.458652 7.386357 -11.085472 -13.454764 -39.086840 -44.337390 90.795381 1.627981 0.712000 -14.227527 -0.657503 -0.701016 2.719902 -8.945132 -7.294554 14.229082 64.316020 -58.981789 -103.748957 7.892501 5.895591 11.914050 -4.001761 -53.439565 -8.068997 -162.787586 83.309782 -150.749616 -29.740719 -3.280686 -3.586355 -0.110650 -11.456421 0.100523 -14.325698 -54.764487 19.134923 -75.761479 66.423727 -80.616633 30.450150 5.777007 14.662349 0.100248 -0.326617 0.032509
-117.221973 48.921083 19.581726 175.843861 -31.598146 -3.188186 0.386815 18.588023 2.170462 0.031505 2.126080 0.198651 0.045526 3.550836 0.354073 0.368346 16.221408 1.691328 4.896457 16.750867 -3.001937 10.077825 -4.229975 -7.184657 -1.192583 -1.910647 -3.490374 7.447656 -11.067858 -13.440048 -39.143796 -44.265517 90.834187 1.531794 0.629322 -14.499196 -0.658037 -0.698435 2.726693 -8.969376 -7.287506 14.173224 64.376765 -59.032491 -103.777158 8.001261 5.937495 12.055122 -3.991669 -53.463791 -8.051610 -163.556211 83.354792 -151.557793 -29.809572 -3.237661 -3.575389 -0.140911 -11.468175 0.124664 -14.322477 -54.775829 19.153046 -75.747100 66.411368 -80.606150 30.450342 5.785687 14.658202 0.106617 -0.331387 0.044418
-117.230278 48.926419 19.587503 175.850799 -31.563842 -3.179198 0.369427 18.576433 2.169469 0.027419 2.128358 0.199971 0.032121 3.573073 0.365980 0.368481 16.191333 1.668871 4.895377 16.791780 -2.938531 10.083113 -4.214669 -7.139387 -1.192315 -1.892882 -3.514134 7.441756 -11.048620 -13.401570 -39.130800 -44.175916 90.827803 1.459163 0.642265 -14.552307 -0.659056 -0.682702 2.749863 -8.926230 -7.271320 14.097566 64.322437 -59.030263 -103.783247 8.102727 5.991022 12.125689 -3.952299 -53.512491 -8.062627 -163.936169 83.377562 -151.964726 -29.887758 -3.200757 -3.557527 -0.134037 -11.471636 0.142337 -14.307503 -54.804512 19.160455 -75.678952 66.389649 -80.563801 30.451838 5.791128 14.686514 0.103177 -0.328817 0.052982
-117.241114 48.932272 19.592019 175.824788 -31.546190 -3.151224 0.384122 18.581028 2.166751 0.020352 2.128432 0.201630 0.033257 3.576351 0.365536 0.359564 16.181106 1.661075 4.898103 16.816182 -2.888327 10.081956 -4.197230 -7.072266 -1.200768 -1.878711 -3.537874 7.376153 -11.032263 -13.354867 -39.070527 -44.083545 90.798329 1.418584 0.717425 -14.437751 -0.641607 -0.666784 2.774413 -8.866797 -7.292868 14.066704 64.162351 -58.934272 -103.731187 8.197146 6.037605 12.132512 -3.889811 -53.550845 -8.073771 -163.975791 83.375383 -152.031763 -29.931123 -3.156147 -3.556914 -0.066792 -11.486753 0.159897 -14.246147 -54.822517 19.159983 -75.628032 66.354205 -80.529992 30.442173 5.758364 14.708541 0.107760 -0.280912 0.060994
-117.257772 48.935721 19.598906 175.858457 -31.511501 -3.132684 0.342593 18.573443 2.141270 0.016251 2.127032 0.202524 0.030257 3.586916 0.370202 0.340065 16.176652 1.658766 4.908767 16.825016 -2.849446 10.079313 -4.186754 -7.002963 -1.199415 -1.887483 -3.568701 7.260014 -11.012732 -13.315129 -38.994756 -44.009902 90.771570 1.418143 0.826132 -14.223668 -0.616857 -0.667487 2.792400 -8.784174 -7.314395 14.047640 64.066662 -58.868086 -103.745522 8.348046 6.104238 12.087148 -3.872567 -53.595254 -8.124248 -164.126780 83.386799 -152.201112 -30.004530 -3.157666 -3.545757 -0.034621 -11.470394 0.166083 -14.216392 -54.867160 19.117897 -75.521386 66.329935 -80.469626 30.484740 5.795537 14.781642 0.080885 -0.297019 0.046752
-117.272770 48.937538 19.607904 175.886426 -31.467873 -3.131178 0.313468 18.558778 2.137975 0.013594 2.126427 0.202272 0.027951 3.590841 0.372846 0.323872 16.176023 1.661257 4.915864 16.832367 -2.809265 10.074261 -4.185177 -6.933814 -1.213281 -1.898796 -3.602476 7.122418 -10.994148 -13.282850 -38.929355 -43.970854 90.768392 1.462387 0.945933 -13.977827 -0.598529 -0.673395 2.811118 -8.694235 -7.326883 14.036796 63.975817 -58.794277 -103.773579 8.462162 6.158835 12.009958 -3.879144 -53.644634 -8.143563 -164.628322 83.415389 -152.734055 -30.018197 -3.159039 -3.563213 -0.076152 -11.444137 0.204651 -14.217140 -54.917822 19.105501 -75.474389 66.318996 -80.440730 30.492090 5.808719 14.806179 0.076819 -0.295800 0.048969
-117.286082 48.940332 19.614486 175.906157 -31.444575 -3.140419 0.300606 18.565955 2.153046 0.011883 2.157161 0.217696 0.024035 3.564705 0.360295 0.299470 16.217028 1.689096 4.921039 16.796898 -2.801358 10.065019 -4.193686 -6.866292 -1.224530 -1.956365 -3.666032 6.974831 -10.974218 -13.260438 -38.884728 -43.970019 90.799022 1.542065 1.056921 -13.752978 -0.561337 -0.703224 2.851901 -8.654381 -7.375580 13.967212 63.711113 -58.652774 -103.622175 8.413084 6.132008 11.923555 -3.877126 -53.672006 -8.158324 -164.792374 83.425059 -152.903966 -30.040129 -3.153164 -3.559979 -0.083264 -11.435281 0.215231 -14.201069 -54.953273 19.093455 -75.452812 66.306213 -80.422254 30.506199 5.828709 14.820827 0.068104 -0.303658 0.060120
-117.294064 48.943615 19.620159 175.942129 -31.429925 -3.192567 0.289849 18.581406 2.207151 0.005950 2.144476 0.210004 0.025740 3.583636 0.371513 0.286970 16.224318 1.696970 4.918060 16.782429 -2.783514 10.049703 -4.207058 -6.781800 -1.240072 -1.986637 -3.703872 6.814060 -10.947253 -13.250269 -38.857423 -44.003847 90.859807 1.639583 1.144376 -13.584028 -0.553659 -0.723871 2.868780 -8.580419 -7.368667 13.957009 63.623380 -58.611062 -103.646765 8.399887 6.138337 11.839647 -3.922949 -53.681371 -8.122410 -164.974273 83.445006 -153.075720 -30.103424 -3.162885 -3.558627 -0.131912 -11.413914 0.236349 -14.220945 -54.978876 19.115639 -75.484978 66.296222 -80.430310 30.507724 5.900788 14.821284 0.085248 -0.366240 0.072301
